<svg width="800" height="800" viewBox="0 0 800 800" fill="none" xmlns="http://www.w3.org/2000/svg">
<rect width="800" height="800" rx="180" fill="#34C759"/>
<path d="M779.519 538.655L655.478 323.805C654.975 322.933 654.405 322.123 653.778 321.378L535.767 116.981C522.498 90.4594 501.905 68.5859 476.181 53.6953C453.083 40.3203 426.833 33.2516 400.272 33.2516C346.238 33.2516 295.87 62.2609 268.82 108.975L144.778 323.803C144.277 324.673 143.856 325.58 143.52 326.511L27.6391 527.248C9.55469 552.947 0 583.158 0 614.678C0 698.53 68.2172 766.748 152.066 766.748H648.208C649.397 766.748 650.559 766.625 651.68 766.391C677.091 765.83 702.114 758.805 724.25 745.986C759.319 725.681 784.378 692.926 794.819 653.758C805.252 614.587 799.819 573.703 779.519 538.655ZM762.294 645.089C754.172 675.572 734.67 701.061 707.384 716.861C689.409 727.27 669.006 732.773 648.228 732.773C647.117 732.78 646.011 732.881 644.93 733.095H152.066C86.7734 733.095 33.6547 679.973 33.6547 614.68C33.6547 589.922 41.2203 566.205 55.5344 546.094C55.8438 545.659 56.1297 545.211 56.4 544.75L173.883 341.237L174.072 340.916C174.617 339.994 175.07 339.027 175.428 338.033L297.953 125.823C318.998 89.4828 358.205 66.9078 400.272 66.9078C420.919 66.9078 441.336 72.4125 459.32 82.8234C479.459 94.4797 495.552 111.633 505.863 132.425C506.02 132.744 506.188 133.056 506.366 133.364L626.112 340.766C626.616 341.637 627.186 342.447 627.812 343.194L750.389 555.505C766.189 582.789 770.417 614.606 762.294 645.089Z" fill="black"/>
<path d="M260.956 292.072C252.923 287.4 242.622 290.123 237.952 298.159L130.677 482.636C126.006 490.669 128.731 500.97 136.764 505.641C139.425 507.189 142.336 507.923 145.208 507.923C151.003 507.923 156.647 504.925 159.769 499.552L267.044 315.077C271.716 307.044 268.992 296.744 260.956 292.072Z" fill="black"/>
<path d="M130.333 516.659C122.292 511.997 111.997 514.734 107.334 522.777L106.937 523.461C102.277 531.502 105.014 541.798 113.055 546.459C115.714 547.998 118.616 548.731 121.481 548.731C127.284 548.731 132.933 545.725 136.053 540.342L136.448 539.658C141.111 531.617 138.373 521.32 130.333 516.659Z" fill="black"/>
<path d="M637.181 666.113C556.934 666.014 539.188 666.055 514.623 666.113L510.459 666.12C501.166 666.142 493.648 673.692 493.669 682.984C493.691 692.266 501.219 699.775 510.495 699.775C510.509 699.775 510.522 699.775 510.534 699.775L514.703 699.766C539.231 699.709 556.953 699.669 637.141 699.766C637.148 699.766 637.156 699.766 637.164 699.766C646.445 699.766 653.978 692.244 653.989 682.958C653.998 673.669 646.473 666.125 637.181 666.113Z" fill="black"/>
<path d="M673.92 659.236L673.552 659.45C665.411 663.931 662.441 674.164 666.922 682.305C669.984 687.875 675.739 691.023 681.68 691.023C684.42 691.023 687.202 690.352 689.775 688.937C690.159 688.725 690.545 688.502 690.93 688.277C698.95 683.58 701.642 673.27 696.944 665.251C692.247 657.233 681.938 654.539 673.92 659.236Z" fill="black"/>
<path d="M399.945 489.452C430.894 489.452 456.073 464.273 456.073 433.325V263.402C456.073 232.455 430.892 207.275 399.942 207.275C368.994 207.275 343.816 232.453 343.816 263.402V433.323C343.816 464.273 368.995 489.452 399.945 489.452ZM377.469 263.402C377.469 251.011 387.552 240.93 399.944 240.93C412.334 240.93 422.417 251.009 422.417 263.402V433.323C422.417 445.714 412.336 455.795 399.944 455.795H399.941C387.55 455.795 377.469 445.714 377.469 433.323V263.402Z" fill="black"/>
<path d="M399.945 521.097C368.997 521.097 343.819 546.277 343.819 577.227C343.819 608.175 368.997 633.353 399.945 633.353C430.897 633.353 456.075 608.175 456.075 577.227C456.075 546.275 430.894 521.097 399.945 521.097ZM399.945 599.698C387.555 599.698 377.473 589.617 377.473 577.227C377.473 564.834 387.553 554.752 399.945 554.752C412.337 554.752 422.42 564.834 422.42 577.227C422.42 589.617 412.337 599.698 399.945 599.698Z" fill="black"/>
</svg>
